<?xml version="1.0" encoding="utf-8"?>
<!-- Generator: Adobe Illustrator 22.1.0, SVG Export Plug-In . SVG Version: 6.00 Build 0)  -->
<svg version="1.1" id="Layer_1" xmlns="http://www.w3.org/2000/svg" xmlns:xlink="http://www.w3.org/1999/xlink" x="0px" y="0px"
	 viewBox="0 0 1116.9 1116.9" style="enable-background:new 0 0 1116.9 1116.9;" xml:space="preserve">
<style type="text/css">
	.st0{fill:#5C4FA1;}
	.st1{fill:#FFFFFF;}
</style>
<rect x="35.4" y="35.4" class="st0" width="1046.2" height="1046.2"/>
<path class="st1" d="M920.6,346.3c-7.6-13.2-18.6-24.4-32.2-32.2L591,142.4c-13.6-7.9-28.8-11.8-44-11.8s-30.4,3.9-44,11.8
	L205.6,314.1c-13.6,7.9-24.6,19.1-32.2,32.2c-7.6,13.2-11.8,28.3-11.8,44v343.3c0,15.7,4.2,30.9,11.8,44
	c7.6,13.2,18.6,24.4,32.2,32.2L503,981.6c13.6,7.9,28.8,11.8,44,11.8s30.4-3.9,44-11.8l297.3-171.7c13.6-7.9,24.6-19.1,32.2-32.2
	c7.6-13.2,11.8-28.3,11.8-44V390.3C932.4,374.6,928.2,359.5,920.6,346.3z"/>
<circle class="st0" cx="548.6" cy="562" r="281"/>
<path class="st1" d="M350.3,530.2l158.4,196c29.8,36.9,88.2,28.1,105.9-15.9L753,365.2c21.3-53-34.4-104.2-85.4-78.6l-296.9,149
	C335.3,453.4,325.4,499.4,350.3,530.2z"/>
<path class="st0" d="M405.4,469l107.4,133c20.2,25,59.8,19.1,71.8-10.8l93.9-234c14.4-36-23.3-70.7-58-53.3L419.3,404.9
	C395.3,416.9,388.6,448.1,405.4,469z"/>
</svg>
